<svg version="1.0" xmlns="http://www.w3.org/2000/svg"
 width="84.000000pt" height="84.000000pt" viewBox="0 0 90.000000 84.000000"
 >
<g transform="translate(0.000000,84.000000) scale(0.100000,-0.100000)">
<!-- Main logo shape - now filled completely -->
<path d="M718 655 c-112 -31 -160 -56 -194 -100 -23 -31 -26 -42 -21 -83 5-43 -7 -82 -27 -82 -3 0 -6 8 -6 18 0 9 -9 31 -20 49 -11 19 -15 35 -10 38 21 13 10 57 -20 85 -30 28 -86 45 -169 52 -43 4 -51 -16 -14 -36 15 -8 39 -31 53 -50 30 -41 69 -66 103 -66 19 0 27 -8 40 -42 28 -76 37 -122 37 -186 0 -45 3 -63 12 -60 8 3 13 27 13 64 1 32 9 83 19 112 17 52 18 52 59 52 66 0 100 28 148 120 23 45 55 91 71 103 26 20 37 38 21 36 -5 0 -47 -11 -95 -24z" 
      fill="#000000" stroke="none"/>

</g>
</svg>