<?xml version="1.0" standalone="no"?>
<!DOCTYPE svg PUBLIC "-//W3C//DTD SVG 20010904//EN"
 "http://www.w3.org/TR/2001/REC-SVG-20010904/DTD/svg10.dtd">
<svg version="1.0" xmlns="http://www.w3.org/2000/svg"
 width="483.000000pt" height="483.000000pt" viewBox="0 0 483.000000 483.000000"
 preserveAspectRatio="xMidYMid meet">
<metadata>
Created by potrace 1.11, written by Peter Selinger 2001-2013
</metadata>
<g transform="translate(0.000000,483.000000) scale(0.100000,-0.100000)"
fill="#000000" stroke="none">
<path d="M1399 4265 c-1 -26 -1 -536 0 -552 1 -8 160 -11 639 -12 350 0 674 0
720 0 l83 -1 -3 -967 -3 -968 -22 -55 c-39 -94 -117 -186 -404 -471 l-277
-276 42 -46 c58 -63 307 -326 330 -349 23 -22 -12 -52 334 287 464 456 551
591 578 900 5 60 9 2281 5 2495 l-1 35 -1010 0 c-1003 0 -1010 0 -1011 -20z"/>
</g>
</svg>
